<?xml version="1.0" encoding="utf-8"?>
<!-- Generator: Adobe Illustrator 16.0.0, SVG Export Plug-In . SVG Version: 6.00 Build 0)  -->
<!DOCTYPE svg PUBLIC "-//W3C//DTD SVG 1.0//EN" "http://www.w3.org/TR/2001/REC-SVG-20010904/DTD/svg10.dtd">
<svg version="1.0" id="Layer_1" xmlns="http://www.w3.org/2000/svg" xmlns:xlink="http://www.w3.org/1999/xlink" x="0px" y="0px"
	 width="100px" height="100px" viewBox="0 0 100 100" enable-background="new 0 0 100 100" xml:space="preserve">
<g>
	<path fill-rule="evenodd" clip-rule="evenodd" fill="#808184" d="M41.652,6.009C-4.638,49.886,92.77,42.945,65.665,79.282
		c-7.41,9.932-12.02,12.898-12.02,12.898S97.037,67.064,74.993,49.02C65.07,40.903,24.542,30.821,40.344,7.908L41.652,6.009
		L41.652,6.009z"/>
	<path fill-rule="evenodd" clip-rule="evenodd" fill="#F48120" d="M58.346,6.009c46.295,43.877-51.116,36.937-24.01,73.273
		c7.409,9.932,12.021,12.898,12.021,12.898S2.959,67.064,25.009,49.02c9.919-8.117,50.449-18.199,34.646-41.112L58.346,6.009
		L58.346,6.009z"/>
	<circle fill-rule="evenodd" clip-rule="evenodd" fill="#F48120" cx="50.093" cy="18.455" r="8.66"/>
</g>
</svg>
